<svg xmlns="http://www.w3.org/2000/svg" version="1.1" viewBox="0 -20 900 350"><g transform="translate(0,-702.3621714794528)" stroke-linecap="butt"><path fill="none" stroke="#cccccc" stroke-opacity="1" stroke-width="2" stroke-miterlimit="4" d="M1.03 972.7l898.58-1.1M741.74 782.8v15.72l50.38 35.68.18 14.4M331.6 718.6v51.8l36.88 22.58-.36 30.45-14.84 11.33v14.57" stroke-linejoin="miter"/><path fill="none" stroke="#cccccf" stroke-opacity=".94" stroke-width="2" stroke-miterlimit="4" d="M360 736.1v33.4l18.84 10.76v68M387.86 750.93v18.93l10.62 10.63L414.9 796l.77 26.4v25.86M416.43 767.1v7.68l6.43 6.43v66.52M528.93 848.43v-6.07l-10.04-5.8h-59.44l-15.13-26.2v-25.14" stroke-linejoin="miter"/><path fill="none" stroke="#cccccf" stroke-opacity=".94" stroke-width="2" stroke-miterlimit="4" d="M472.32 800.76v11.6l15 15h129.1l21.14 12.2v9.6" stroke-linejoin="miter"/><path fill="none" stroke="#cccccc" stroke-opacity="1" stroke-width="2" stroke-miterlimit="4" d="M71.75 720v116.38l10.16 7.27v5.65" stroke-linejoin="miter"/><path fill="none" stroke="#cccccc" stroke-opacity=".94" stroke-width="2" stroke-miterlimit="4" d="M99.67 736.3v97.94L90.4 838v11.3" stroke-linejoin="miter"/><path fill="none" stroke="#cccccc" stroke-opacity="1" stroke-width="2" stroke-miterlimit="4" d="M130.96 753.93v56.56l23.2 26.2 41.88-.34 10.3 7.3v5.64" stroke-linejoin="miter"/><path fill="none" stroke="#cccccc" stroke-opacity="1" stroke-width="2" stroke-miterlimit="4" d="M158.88 770.36v36.76l15.14 16.97c.17.68 18.46.35 18.46.35L212 840.82v8.48M190.35 788.04v17.12l32.2 24.17 43.18.18 17.92 13.08v5.65" stroke-linejoin="miter"/><path fill="none" stroke="#cccccc" stroke-opacity="1" stroke-width="2" stroke-miterlimit="4" d="M343.43 848.95v-11.32l-16.5-18.06-89.7-.18L224.46 808M609.73 719.3v85.84l36.32 29.67v14.15M637.13 732.55v58.54l43.63 43.17v14.14M670.76 751.28v42.42l47.45 41.46v14.14M710.47 768.42v25.46l47.27 43.04 21.5.7 6.8 7.78v2.83M772.4 799.18l24.88 21.5 34.06.34 28.28 19.8v8.48" stroke-linejoin="miter"/><path fill="#00a753" fill-opacity=".75" stroke="#00a753" stroke-opacity="1" stroke-width="4.71" stroke-miterlimit="10" d="M14.03 858.46h65.04v56.56H14.03z" stroke-linejoin="round"/><text x="1320" y="692.36" fill="#000000" fill-opacity="1" stroke="none" stroke-opacity="1" stroke-width="1" font-size="40" font-family="sans-serif" font-weight="normal" word-spacing="0" font-style="normal" xml:space="preserve" style="line-height:125%" stroke-linejoin="miter" letter-spacing="0"/><text x="46.44" y="873.67" fill="#ffffff" fill-opacity="1" stroke="none" stroke-opacity="1" stroke-width="1" text-anchor="middle" font-size="12.73" font-variant="normal" letter-spacing="0" word-spacing="0" font-stretch="normal" font-style="normal" xml:space="preserve" style="line-height:125%;-inkscape-font-specification:'sans-serif Bold';text-align:center" font-weight="bold" stroke-linejoin="miter" font-family="sans-serif"><tspan x="46.44" y="873.67">Prompt</tspan><tspan x="46.44" y="889.58">for</tspan><tspan x="46.44" y="905.49">unload</tspan></text><path fill="#00a753" fill-opacity=".75" stroke="#00a753" stroke-opacity="1" stroke-width="4.71" stroke-miterlimit="10" d="M87.9 858.46h115.94v56.56H87.9z" stroke-linejoin="round"/><text x="145.52" y="889.46" fill="#ffffff" fill-opacity="1" stroke="none" stroke-opacity="1" stroke-width="1" text-anchor="middle" font-size="12.73" font-variant="normal" letter-spacing="0" word-spacing="0" font-stretch="normal" font-style="normal" xml:space="preserve" style="line-height:125%;-inkscape-font-specification:'sans-serif Bold';text-align:center" font-weight="bold" stroke-linejoin="miter" font-family="sans-serif"><tspan x="145.52" y="889.46">Redirect</tspan></text><path fill="#00a753" fill-opacity=".75" stroke="#00a753" stroke-opacity="1" stroke-width="4.71" stroke-miterlimit="10" d="M213.75 858.46h59.4v56.56h-59.4zM283.3 858.46h59.38v56.56h-59.4zM353.43 858.46h59.4v56.56h-59.4z" stroke-linejoin="round"/><text x="243.33" y="881.78" fill="#ffffff" fill-opacity="1" stroke="none" stroke-opacity="1" stroke-width="1" text-anchor="middle" font-size="12.73" font-variant="normal" letter-spacing="0" word-spacing="0" font-stretch="normal" font-style="normal" xml:space="preserve" style="line-height:125%;-inkscape-font-specification:'sans-serif Bold';text-align:center" font-weight="bold" stroke-linejoin="miter" font-family="sans-serif"><tspan x="243.33" y="881.78">App</tspan><tspan x="243.33" y="897.68">cache</tspan></text><text x="312.8" y="890.86" fill="#ffffff" fill-opacity="1" stroke="none" stroke-opacity="1" stroke-width="1" text-anchor="middle" font-size="12.73" font-variant="normal" letter-spacing="0" word-spacing="0" font-stretch="normal" font-style="normal" xml:space="preserve" style="line-height:125%;-inkscape-font-specification:'sans-serif Bold';text-align:center" font-weight="bold" stroke-linejoin="miter" font-family="sans-serif"><tspan x="312.8" y="890.86">DNS</tspan></text><text x="384.56" y="890.22" fill="#ffffff" fill-opacity="1" stroke="none" stroke-opacity="1" stroke-width="1" text-anchor="middle" font-size="12.73" font-variant="normal" letter-spacing="0" word-spacing="0" font-stretch="normal" font-style="normal" xml:space="preserve" style="line-height:125%;-inkscape-font-specification:'sans-serif Bold';text-align:center" font-weight="bold" stroke-linejoin="miter" font-family="sans-serif"><tspan x="384.56" y="890.22">TCP</tspan></text><path fill="#00a753" fill-opacity=".75" stroke="#00a753" stroke-opacity="1" stroke-width="4.71" stroke-miterlimit="10" d="M422.9 858.46H528.4v56.56H422.9z" stroke-linejoin="round"/><path fill="#00a753" fill-opacity=".75" stroke="#00a753" stroke-opacity="1" stroke-width="4.71" stroke-miterlimit="10" d="M528.38 858.46H636.7v56.56H528.38zM646.94 858.46h141.4v56.56h-141.4zM789.78 858.46h70.7v56.56h-70.7z" stroke-linejoin="round"/><text x="717.74" y="890.91" fill="#ffffff" fill-opacity="1" stroke="none" stroke-opacity="1" stroke-width="1" text-anchor="middle" font-size="12.73" font-variant="normal" letter-spacing="0" word-spacing="0" font-stretch="normal" font-style="normal" xml:space="preserve" style="line-height:125%;-inkscape-font-specification:'sans-serif Bold';text-align:center" font-weight="bold" stroke-linejoin="miter" font-family="sans-serif"><tspan x="717.74" y="890.91">Processing</tspan></text><text x="578.6" y="889.8" fill="#ffffff" fill-opacity="1" stroke="none" stroke-opacity="1" stroke-width="1" text-anchor="middle" font-size="12.73" font-variant="normal" letter-spacing="0" word-spacing="0" font-stretch="normal" font-style="normal" xml:space="preserve" style="line-height:125%;-inkscape-font-specification:'sans-serif Bold';text-align:center" font-weight="bold" stroke-linejoin="miter" font-family="sans-serif"><tspan x="578.6" y="889.8">Response</tspan></text><text x="825.89" y="890.05" fill="#ffffff" fill-opacity="1" stroke="none" stroke-opacity="1" stroke-width="1" text-anchor="middle" font-size="12.73" font-variant="normal" letter-spacing="0" word-spacing="0" font-stretch="normal" font-style="normal" xml:space="preserve" style="line-height:125%;-inkscape-font-specification:'sans-serif Bold';text-align:center" font-weight="bold" stroke-linejoin="miter" font-family="sans-serif"><tspan x="825.89" y="890.05">Onload</tspan></text><text x="475.78" y="889.67" fill="#ffffff" fill-opacity="1" stroke="none" stroke-opacity="1" stroke-width="1" text-anchor="middle" font-size="12.73" font-variant="normal" letter-spacing="0" word-spacing="0" font-stretch="normal" font-style="normal" xml:space="preserve" style="line-height:125%;-inkscape-font-specification:'sans-serif Bold';text-align:center" font-weight="bold" stroke-linejoin="miter" font-family="sans-serif"><tspan x="475.78" y="889.67">Request</tspan></text><flowRoot fill="#000000" fill-opacity="1" stroke="none" stroke-opacity="1" stroke-width="1" font-family="sans-serif" letter-spacing="0" xml:space="preserve" style="line-height:125%" font-style="normal" font-weight="normal" font-size="40" stroke-linejoin="miter" word-spacing="0"><flowRegion><path d="M850 960h390v210H850z"/></flowRegion><flowPara/></flowRoot><flowRoot fill="#000000" fill-opacity="1" stroke="none" stroke-opacity="1" stroke-width="1" font-family="sans-serif" letter-spacing="0" xml:space="preserve" style="line-height:125%" font-style="normal" font-weight="normal" font-size="40" stroke-linejoin="miter" word-spacing="0"><flowRegion><path d="M1740 250h5.7v190h-5.7z"/></flowRegion><flowPara/></flowRoot><text x="690.62" y="752.63" fill="#000000" fill-opacity="1" stroke="none" stroke-opacity="1" stroke-width="1" font-style="normal" font-size="12.5" font-variant="normal" letter-spacing="0" word-spacing="0" font-stretch="normal" xml:space="preserve" style="line-height:125%;-inkscape-font-specification:'sans-serif Bold'" font-weight="bold" stroke-linejoin="miter" font-family="sans-serif"><tspan x="690.62" y="752.63">domContentLoaded</tspan></text><text x="732.83" y="770.82" fill="#000000" fill-opacity="1" stroke="none" stroke-opacity="1" stroke-width="1" font-style="normal" font-size="12.5" font-variant="normal" letter-spacing="0" word-spacing="0" font-stretch="normal" xml:space="preserve" style="line-height:125%;-inkscape-font-specification:'sans-serif Bold'" font-weight="bold" stroke-linejoin="miter" font-family="sans-serif"><tspan x="732.83" y="770.82">domComplete</tspan></text><text x="763.34" y="787.43" fill="#000000" fill-opacity="1" stroke="none" stroke-opacity="1" stroke-width="1" font-style="normal" font-size="12.5" font-variant="normal" letter-spacing="0" word-spacing="0" font-stretch="normal" xml:space="preserve" style="line-height:125%;-inkscape-font-specification:'sans-serif Bold'" font-weight="bold" stroke-linejoin="miter" font-family="sans-serif"><tspan x="763.34" y="787.43">loadEventStart</tspan></text><text x="793.74" y="802.92" fill="#000000" fill-opacity="1" stroke="none" stroke-opacity="1" stroke-width="1" font-style="normal" font-size="12.5" font-variant="normal" letter-spacing="0" word-spacing="0" font-stretch="normal" xml:space="preserve" style="line-height:125%;-inkscape-font-specification:'sans-serif Bold'" font-weight="bold" stroke-linejoin="miter" font-family="sans-serif"><tspan x="793.74" y="802.92">loadEventEnd</tspan></text><text x="78.68" y="721.13" fill="#000000" fill-opacity="1" stroke="none" stroke-opacity="1" stroke-width="1" font-style="normal" font-size="12.5" font-variant="normal" letter-spacing="0" word-spacing="0" font-stretch="normal" xml:space="preserve" style="line-height:125%;-inkscape-font-specification:'sans-serif Bold'" font-weight="bold" stroke-linejoin="miter" font-family="sans-serif"><tspan x="78.68" y="721.13">navigationStart</tspan></text><text x="107.74" y="739.4" fill="#000000" fill-opacity="1" stroke="none" stroke-opacity="1" stroke-width="1" font-style="normal" font-size="12.5" font-variant="normal" letter-spacing="0" word-spacing="0" font-stretch="normal" xml:space="preserve" style="line-height:125%;-inkscape-font-specification:'sans-serif Bold'" font-weight="bold" stroke-linejoin="miter" font-family="sans-serif"><tspan x="107.74" y="739.4">redirectStart</tspan></text><text x="140" y="756.91" fill="#000000" fill-opacity="1" stroke="none" stroke-opacity="1" stroke-width="1" font-style="normal" font-size="12.5" font-variant="normal" letter-spacing="0" word-spacing="0" font-stretch="normal" xml:space="preserve" style="line-height:125%;-inkscape-font-specification:'sans-serif Bold'" font-weight="bold" stroke-linejoin="miter" font-family="sans-serif"><tspan x="140" y="756.91">redirectEnd</tspan></text><text x="173.07" y="773.8" fill="#000000" fill-opacity="1" stroke="none" stroke-opacity="1" stroke-width="1" font-style="normal" font-size="12.5" font-variant="normal" letter-spacing="0" word-spacing="0" font-stretch="normal" xml:space="preserve" style="line-height:125%;-inkscape-font-specification:'sans-serif Bold'" font-weight="bold" stroke-linejoin="miter" font-family="sans-serif"><tspan x="173.07" y="773.8">fetchStart</tspan></text><text x="202.96" y="790.72" fill="#000000" fill-opacity="1" stroke="none" stroke-opacity="1" stroke-width="1" font-style="normal" font-size="12.5" font-variant="normal" letter-spacing="0" word-spacing="0" font-stretch="normal" xml:space="preserve" style="line-height:125%;-inkscape-font-specification:'sans-serif Bold'" font-weight="bold" stroke-linejoin="miter" font-family="sans-serif"><tspan x="202.96" y="790.72">domainLookupStart</tspan></text><text x="234.93" y="808.94" fill="#000000" fill-opacity="1" stroke="none" stroke-opacity="1" stroke-width="1" font-style="normal" font-size="12.5" font-variant="normal" letter-spacing="0" word-spacing="0" font-stretch="normal" xml:space="preserve" style="line-height:125%;-inkscape-font-specification:'sans-serif Bold'" font-weight="bold" stroke-linejoin="miter" font-family="sans-serif"><tspan x="234.93" y="808.94">domainLookupEnd</tspan></text><text x="343.29" y="720.99" fill="#000000" fill-opacity="1" stroke="none" stroke-opacity="1" stroke-width="1" font-style="normal" font-size="12.5" font-variant="normal" letter-spacing="0" word-spacing="0" font-stretch="normal" xml:space="preserve" style="line-height:125%;-inkscape-font-specification:'sans-serif Bold'" font-weight="bold" stroke-linejoin="miter" font-family="sans-serif"><tspan x="343.29" y="720.99">connectStart</tspan></text><text x="375.75" y="736.55" fill="#000000" fill-opacity="1" stroke="none" stroke-opacity="1" stroke-width="1" font-style="normal" font-size="12.5" font-variant="normal" letter-spacing="0" word-spacing="0" font-stretch="normal" xml:space="preserve" style="line-height:125%;-inkscape-font-specification:'sans-serif Bold'" font-weight="bold" stroke-linejoin="miter" font-family="sans-serif"><tspan x="375.75" y="736.55">connectEnd</tspan></text><text x="406.26" y="752.58" fill="#000000" fill-opacity="1" stroke="none" stroke-opacity="1" stroke-width="1" font-style="normal" font-size="12.5" font-variant="normal" letter-spacing="0" word-spacing="0" font-stretch="normal" xml:space="preserve" style="line-height:125%;-inkscape-font-specification:'sans-serif Bold'" font-weight="bold" stroke-linejoin="miter" font-family="sans-serif"><tspan x="406.26" y="752.58">secureConnectionStart</tspan></text><text x="438.1" y="768.47" fill="#000000" fill-opacity="1" stroke="none" stroke-opacity="1" stroke-width="1" font-style="normal" font-size="12.5" font-variant="normal" letter-spacing="0" word-spacing="0" font-stretch="normal" xml:space="preserve" style="line-height:125%;-inkscape-font-specification:'sans-serif Bold'" font-weight="bold" stroke-linejoin="miter" font-family="sans-serif"><tspan x="438.1" y="768.47">requestStart</tspan></text><text x="460.27" y="786.92" fill="#000000" fill-opacity="1" stroke="none" stroke-opacity="1" stroke-width="1" font-style="normal" font-size="12.5" font-variant="normal" letter-spacing="0" word-spacing="0" font-stretch="normal" xml:space="preserve" style="line-height:125%;-inkscape-font-specification:'sans-serif Bold'" font-weight="bold" stroke-linejoin="miter" font-family="sans-serif"><tspan x="460.27" y="786.92">responseStart</tspan></text><text x="488.87" y="804.04" fill="#000000" fill-opacity="1" stroke="none" stroke-opacity="1" stroke-width="1" font-style="normal" font-size="12.5" font-variant="normal" letter-spacing="0" word-spacing="0" font-stretch="normal" xml:space="preserve" style="line-height:125%;-inkscape-font-specification:'sans-serif Bold'" font-weight="bold" stroke-linejoin="miter" font-family="sans-serif"><tspan x="488.87" y="804.04">responseEnd</tspan></text><text x="628.34" y="720.32" fill="#000000" fill-opacity="1" stroke="none" stroke-opacity="1" stroke-width="1" font-style="normal" font-size="12.5" font-variant="normal" letter-spacing="0" word-spacing="0" font-stretch="normal" xml:space="preserve" style="line-height:125%;-inkscape-font-specification:'sans-serif Bold'" font-weight="bold" stroke-linejoin="miter" font-family="sans-serif"><tspan x="628.34" y="720.32">domLoading</tspan></text><text x="657.38" y="736.04" fill="#000000" fill-opacity="1" stroke="none" stroke-opacity="1" stroke-width="1" font-style="normal" font-size="12.5" font-variant="normal" letter-spacing="0" word-spacing="0" font-stretch="normal" xml:space="preserve" style="line-height:125%;-inkscape-font-specification:'sans-serif Bold'" font-weight="bold" stroke-linejoin="miter" font-family="sans-serif"><tspan x="657.38" y="736.04">domInteractive</tspan></text><circle cx="71.4" cy="719.92" r="1.44" fill="#cccccc" fill-opacity="1" stroke="#919191" stroke-opacity="1" stroke-width="1.13" stroke-miterlimit="4" stroke-linejoin="round"/><path fill="#cccccc" fill-opacity="1" stroke="#919191" stroke-opacity="1" stroke-width="1.13" stroke-miterlimit="4" d="M80.1 847.65l1.77.03 1.87.03-.9 1.52-.97 1.6-.86-1.55z" stroke-linejoin="round"/><circle cx="99.69" cy="736.61" r="1.44" fill="#cccccc" fill-opacity="1" stroke="#919191" stroke-opacity="1" stroke-width="1.13" stroke-miterlimit="4" stroke-linejoin="round"/><circle cx="130.79" cy="753.86" r="1.44" fill="#cccccc" fill-opacity="1" stroke="#919191" stroke-opacity="1" stroke-width="1.13" stroke-miterlimit="4" stroke-linejoin="round"/><circle cx="159.07" cy="770.54" r="1.44" fill="#cccccc" fill-opacity="1" stroke="#919191" stroke-opacity="1" stroke-width="1.13" stroke-miterlimit="4" stroke-linejoin="round"/><circle cx="190.18" cy="788.08" r="1.44" fill="#cccccc" fill-opacity="1" stroke="#919191" stroke-opacity="1" stroke-width="1.13" stroke-miterlimit="4" stroke-linejoin="round"/><circle cx="224.12" cy="807.59" r="1.44" fill="#cccccc" fill-opacity="1" stroke="#919191" stroke-opacity="1" stroke-width="1.13" stroke-miterlimit="4" stroke-linejoin="round"/><circle cx="331.41" cy="718.52" r="1.44" fill="#cccccc" fill-opacity="1" stroke="#919191" stroke-opacity="1" stroke-width="1.13" stroke-miterlimit="4" stroke-linejoin="round"/><circle cx="359.69" cy="736.34" r="1.44" fill="#cccccc" fill-opacity="1" stroke="#919191" stroke-opacity="1" stroke-width="1.13" stroke-miterlimit="4" stroke-linejoin="round"/><circle cx="387.97" cy="751.33" r="1.44" fill="#cccccc" fill-opacity="1" stroke="#919191" stroke-opacity="1" stroke-width="1.13" stroke-miterlimit="4" stroke-linejoin="round"/><circle cx="416.25" cy="767.45" r="1.44" fill="#cccccc" fill-opacity="1" stroke="#919191" stroke-opacity="1" stroke-width="1.13" stroke-miterlimit="4" stroke-linejoin="round"/><circle cx="444.53" cy="784.98" r="1.44" fill="#cccccc" fill-opacity="1" stroke="#919191" stroke-opacity="1" stroke-width="1.13" stroke-miterlimit="4" stroke-linejoin="round"/><circle cx="472.81" cy="800.53" r="1.44" fill="#cccccc" fill-opacity="1" stroke="#919191" stroke-opacity="1" stroke-width="1.13" stroke-miterlimit="4" stroke-linejoin="round"/><circle cx="609.77" cy="718.15" r="1.44" fill="#cccccc" fill-opacity="1" stroke="#919191" stroke-opacity="1" stroke-width="1.13" stroke-miterlimit="4" stroke-linejoin="round"/><circle cx="636.79" cy="732.64" r="1.44" fill="#cccccc" fill-opacity="1" stroke="#919191" stroke-opacity="1" stroke-width="1.13" stroke-miterlimit="4" stroke-linejoin="round"/><circle cx="670.42" cy="750.67" r="1.44" fill="#cccccc" fill-opacity="1" stroke="#919191" stroke-opacity="1" stroke-width="1.13" stroke-miterlimit="4" stroke-linejoin="round"/><circle cx="710.54" cy="768.28" r="1.44" fill="#cccccc" fill-opacity="1" stroke="#919191" stroke-opacity="1" stroke-width="1.13" stroke-miterlimit="4" stroke-linejoin="round"/><circle cx="741.65" cy="783.27" r="1.44" fill="#cccccc" fill-opacity="1" stroke="#919191" stroke-opacity="1" stroke-width="1.13" stroke-miterlimit="4" stroke-linejoin="round"/><circle cx="772.76" cy="799.1" r="1.44" fill="#cccccc" fill-opacity="1" stroke="#919191" stroke-opacity="1" stroke-width="1.13" stroke-miterlimit="4" stroke-linejoin="round"/><path fill="#cccccc" fill-opacity="1" stroke="#919191" stroke-opacity="1" stroke-width="1.13" stroke-miterlimit="4" d="M88.6 847.65l1.76.03 1.86.03-.9 1.52-.97 1.6-.85-1.55zM204.55 847.65l1.76.03 1.87.03-.9 1.52-.97 1.6-.85-1.55zM210.2 847.65l1.76.03 1.87.03-.9 1.52-.97 1.6-.86-1.55zM282.22 847.65l1.76.03 1.86.03-.9 1.52-.97 1.6-.85-1.55zM341.63 847.65l1.77.03 1.86.03-.9 1.52-.97 1.6-.86-1.55zM351.28 847.65l1.76.03 1.86.03-.9 1.52-.97 1.6-.85-1.55zM377.06 847.65l1.76.03 1.86.03-.9 1.52-.97 1.6-.84-1.55zM413.9 847.65l1.77.03 1.86.03-.9 1.52-.97 1.6-.85-1.55zM420.76 847.65l1.76.03 1.86.03-.9 1.52-.96 1.6-.86-1.55zM527.03 847.65l1.76.03 1.85.03-.9 1.52-.96 1.6-.87-1.55zM635.87 847.65l1.76.03 1.86.03-.92 1.52-.96 1.6-.85-1.55zM644.44 847.65l1.76.03 1.86.03-.9 1.52-.97 1.6-.86-1.55zM679.15 847.65l1.76.03 1.87.03-.9 1.52-.97 1.6-.85-1.55zM716.42 847.65l1.76.03 1.87.03-.9 1.52-.97 1.6-.86-1.55zM784.05 847.65l1.77.03 1.86.03-.9 1.52-.97 1.6-.84-1.55zM790.48 847.65l1.76.03 1.87.03-.9 1.52-.96 1.6-.86-1.55zM857.82 847.65l1.77.03 1.85.03-.9 1.52-.97 1.6-.85-1.55z" stroke-linejoin="round"/><circle cx="82.54" cy="972.81" r="3.99" fill="#cccccc" fill-opacity="1" stroke="#919191" stroke-opacity="1" stroke-width="1.13" stroke-miterlimit="4" stroke-linejoin="round"/><circle cx="205.88" cy="972.81" r="3.99" fill="#cccccc" fill-opacity="1" stroke="#919191" stroke-opacity="1" stroke-width="1.13" stroke-miterlimit="4" stroke-linejoin="round"/><circle cx="418.01" cy="972.81" r="3.99" fill="#cccccc" fill-opacity="1" stroke="#919191" stroke-opacity="1" stroke-width="1.13" stroke-miterlimit="4" stroke-linejoin="round"/><circle cx="528.11" cy="972.81" r="3.99" fill="#cccccc" fill-opacity="1" stroke="#919191" stroke-opacity="1" stroke-width="1.13" stroke-miterlimit="4" stroke-linejoin="round"/><circle cx="642.31" cy="972.81" r="3.99" fill="#cccccc" fill-opacity="1" stroke="#919191" stroke-opacity="1" stroke-width="1.13" stroke-miterlimit="4" stroke-linejoin="round"/><circle cx="790.19" cy="972.81" r="3.99" fill="#cccccc" fill-opacity="1" stroke="#919191" stroke-opacity="1" stroke-width="1.13" stroke-miterlimit="4" stroke-linejoin="round"/><circle cx="858.88" cy="972.81" r="3.99" fill="#cccccc" fill-opacity="1" stroke="#919191" stroke-opacity="1" stroke-width="1.13" stroke-miterlimit="4" stroke-linejoin="round"/><text x="103.07" y="994.66" fill="#000000" fill-opacity="1" stroke="none" stroke-opacity="1" stroke-width="1" font-style="normal" font-size="12.5" font-variant="normal" letter-spacing="0" word-spacing="0" font-stretch="normal" xml:space="preserve" style="line-height:125%;-inkscape-font-specification:'sans-serif Bold'" font-weight="bold" stroke-linejoin="miter" font-family="sans-serif"><tspan x="103.07" y="994.66">redirecting</tspan></text><text x="270.75" y="994.76" fill="#000000" fill-opacity="1" stroke="none" stroke-opacity="1" stroke-width="1" font-style="normal" font-size="12.5" font-variant="normal" letter-spacing="0" word-spacing="0" font-stretch="normal" xml:space="preserve" style="line-height:125%;-inkscape-font-specification:'sans-serif Bold'" font-weight="bold" stroke-linejoin="miter" font-family="sans-serif"><tspan x="270.75" y="994.76">dnsconnect</tspan></text><text x="435.65" y="994.76" fill="#000000" fill-opacity="1" stroke="none" stroke-opacity="1" stroke-width="1" font-style="normal" font-size="12.5" font-variant="normal" letter-spacing="0" word-spacing="0" font-stretch="normal" xml:space="preserve" style="line-height:125%;-inkscape-font-specification:'sans-serif Bold'" font-weight="bold" stroke-linejoin="miter" font-family="sans-serif"><tspan x="435.65" y="994.76">request</tspan></text><text x="495" y="1007.36" fill="#000000" fill-opacity="1" stroke="none" stroke-opacity="1" stroke-width="1" font-size="40" font-family="sans-serif" font-weight="normal" word-spacing="0" font-style="normal" xml:space="preserve" style="line-height:125%" stroke-linejoin="miter" letter-spacing="0"/><text x="554.45" y="994.76" fill="#000000" fill-opacity="1" stroke="none" stroke-opacity="1" stroke-width="1" font-style="normal" font-size="12.5" font-variant="normal" letter-spacing="0" word-spacing="0" font-stretch="normal" xml:space="preserve" style="line-height:125%;-inkscape-font-specification:'sans-serif Bold'" font-weight="bold" stroke-linejoin="miter" font-family="sans-serif"><tspan x="554.45" y="994.76">response</tspan></text><text x="667.99" y="994.66" fill="#000000" fill-opacity="1" stroke="none" stroke-opacity="1" stroke-width="1" font-style="normal" font-size="12.5" font-variant="normal" letter-spacing="0" word-spacing="0" font-stretch="normal" xml:space="preserve" style="line-height:125%;-inkscape-font-specification:'sans-serif Bold'" font-weight="bold" stroke-linejoin="miter" font-family="sans-serif"><tspan x="667.99" y="994.66">domprocessing</tspan></text><text x="806.94" y="995.19" fill="#000000" fill-opacity="1" stroke="none" stroke-opacity="1" stroke-width="1" font-style="normal" font-size="12.5" font-variant="normal" letter-spacing="0" word-spacing="0" font-stretch="normal" xml:space="preserve" style="line-height:125%;-inkscape-font-specification:'sans-serif Bold'" font-weight="bold" stroke-linejoin="miter" font-family="sans-serif"><tspan x="806.94" y="995.19">load</tspan></text></g></svg>
